<?xml version="1.0" encoding="UTF-8" standalone="no"?>
<!-- Created with Inkscape (http://www.inkscape.org/) -->

<svg
   width="500"
   height="500"
   viewBox="0 0 132.29167 132.29167"
   version="1.1"
   id="svg5"
   xml:space="preserve"
   xmlns:xlink="http://www.w3.org/1999/xlink"
   xmlns="http://www.w3.org/2000/svg"
   xmlns:svg="http://www.w3.org/2000/svg"><defs
     id="defs2"><linearGradient
       id="linearGradient885"><stop
         style="stop-color:#249232;stop-opacity:1;"
         offset="0"
         id="stop881" /><stop
         style="stop-color:#263626;stop-opacity:0.99180329;"
         offset="1"
         id="stop883" /></linearGradient><linearGradient
       xlink:href="#linearGradient885"
       id="linearGradient887"
       x1="25.555609"
       y1="66.145833"
       x2="106.73606"
       y2="66.145833"
       gradientUnits="userSpaceOnUse" /></defs><g
     id="layer1"><path
       style="fill:url(#linearGradient887);stroke-width:0.213431;fill-opacity:1"
       d="m 41.874535,127.27134 c 0,-0.30735 1.588071,-3.53001 2.02174,-4.1027 0.285064,-0.37645 1.018251,-0.9354 1.629304,-1.24211 1.022904,-0.51343 1.326928,-0.55765 3.833844,-0.55765 h 2.722838 v -0.75825 c 0,-0.41703 0.190115,-1.1336 0.422475,-1.59237 0.808743,-1.59676 -0.01629,-1.50504 13.53782,-1.50504 h 12.164371 l 0.648078,0.54928 c 0.652982,0.55343 1.082466,1.62939 1.084656,2.71732 l 0.0012,0.58906 2.498766,10e-4 c 1.374321,6.4e-4 2.86765,0.10436 3.318511,0.23046 1.268505,0.35478 2.535824,1.69531 3.641755,3.85212 l 0.981379,1.91382 H 66.127897 c -13.339348,0 -24.253362,-0.0429 -24.253362,-0.0952 z M 26.458801,112.31879 c 0.712902,-0.71855 0.954472,-1.15947 1.14656,-2.09268 0.175747,-0.85382 0.227228,-7.2517 0.185291,-23.026846 l -0.05807,-21.844527 -0.472554,-0.890115 c -0.259906,-0.489564 -0.714468,-1.081787 -1.010139,-1.316048 -0.295674,-0.234263 -0.537539,-0.460256 -0.537482,-0.502206 5.7e-5,-0.04195 2.392493,-0.08553 5.316524,-0.09685 l 5.31642,-0.02058 v 11.748205 c 0,6.461514 0.08088,11.748206 0.179735,11.748206 0.327885,0 4.389284,-4.37258 5.073459,-5.462182 1.346601,-2.144575 2.448478,-6.863256 2.754061,-11.793986 0.193583,-3.123554 -0.329186,-4.336957 -2.452955,-5.693579 l -0.940218,-0.600594 7.579164,0.0475 c 7.47092,0.04682 7.577285,0.05362 7.447436,0.475949 -0.07245,0.23565 -0.508798,1.295975 -0.96966,2.356281 -2.241991,5.158142 -2.625676,6.565348 -3.147905,11.545278 -0.475408,4.533436 -2.54136,8.636762 -6.349257,12.610682 l -1.894245,1.976835 5.391021,10.874597 5.391021,10.87461 -5.149766,-0.0573 -5.149766,-0.0573 -3.869107,-7.81842 -3.869104,-7.818417 0.04121,6.461687 0.04121,6.46169 0.646827,0.92651 c 0.355756,0.50957 1.025638,1.14261 1.488627,1.40675 l 0.841799,0.48025 -6.936665,0.004 -6.936664,0.004 z m 31.622333,-12.852188 0.06197,-13.762558 0.561204,-1.453585 c 0.957163,-2.479178 2.378895,-4.135744 4.589589,-5.34768 1.545246,-0.847127 3.159019,-1.196816 5.784276,-1.253395 1.287698,-0.02775 2.454986,-0.12125 2.593977,-0.207773 0.342673,-0.213321 0.109627,-2.956341 -0.322717,-3.798466 -0.459686,-0.895381 -1.48528,-1.70244 -2.529785,-1.990734 -0.88406,-0.244012 -6.436153,-0.135812 -8.281354,0.161389 l -0.810517,0.130546 0.05831,-3.723212 0.05831,-3.72321 1.435461,-0.507293 1.435462,-0.507294 v -1.986373 c 0,-1.922112 -0.01663,-1.990577 -0.514138,-2.116349 -0.939313,-0.237464 -2.831725,-2.211199 -3.571686,-3.725172 -0.608293,-1.244579 -0.693627,-1.630731 -0.694499,-3.142726 -6.38e-4,-1.117299 0.13568,-2.120524 0.387466,-2.85137 0.504415,-1.464148 1.98368,-3.41564 3.204526,-4.227511 0.919704,-0.61161 0.966544,-0.691692 0.970995,-1.660075 l 0.0047,-1.017465 -3.562072,-0.0013 c -4.089159,-0.0015 -5.573093,-0.195362 -7.18605,-0.939152 -2.174045,-1.002529 -3.979394,-3.528977 -4.552597,-6.371006 l -0.243391,-1.206595 -1.258336,-0.46214 c -1.649862,-0.605888 -3.444372,-2.238486 -3.970697,-3.612392 -0.349723,-0.912906 -0.386658,-1.797094 -0.386658,-9.256145 0,-8.229791 0.0011,-8.248612 0.492478,-9.112083 0.270864,-0.475892 0.940746,-1.173108 1.488627,-1.549369 2.471654,-1.6974228 9.340799,-3.934607 15.05912,-4.9045431 3.550394,-0.6022141 12.81405,-0.5387926 16.347546,0.1119195 7.234462,1.3322649 13.271509,3.5519245 14.974669,5.5057816 1.070686,1.22829 1.113967,1.66389 1.041647,10.483802 l -0.06674,8.139723 -0.581457,0.99628 c -0.801977,1.374127 -2.327441,2.665106 -3.77919,3.198279 l -1.219149,0.447749 -0.123305,1.203375 c -0.195703,1.909922 -1.403299,4.139919 -2.872971,5.305349 -2.101547,1.666501 -2.877792,1.857271 -8.0278,1.972904 l -4.482198,0.100639 -0.04687,1.034754 c -0.04247,0.937471 0.0091,1.064168 0.54797,1.347615 1.146007,0.602746 2.63888,2.282307 3.322432,3.737913 0.601086,1.279997 0.672626,1.638521 0.670584,3.360686 -0.0019,1.63581 -0.08811,2.113361 -0.568883,3.152658 -0.649265,1.403526 -2.151916,3.118679 -3.257883,3.7186 l -0.756544,0.410381 0.06092,1.691216 0.06092,1.691216 0.861891,0.255733 c 4.750978,1.409676 9.396565,7.222691 10.09471,12.631496 0.107232,0.830764 0.197922,9.583262 0.201533,19.449999 l 0.0066,17.939521 h -4.465881 -4.46588 V 99.091746 84.954333 h -1.018244 c -1.506967,0 -2.799303,0.730851 -3.394471,1.919666 l -0.478487,0.955751 v 12.6997 12.69971 h -4.47468 -4.474678 z m 9.472213,-46.118961 c 0.496818,-0.568667 0.644224,-1.680555 0.254923,-1.922903 -0.122961,-0.07654 -0.453332,0.110551 -0.734159,0.415767 -0.644544,0.700517 -1.175869,0.701601 -1.99886,0.0041 -0.698768,-0.592238 -1.083976,-0.539227 -1.083976,0.149177 0,0.65854 0.383958,1.238423 1.130042,1.706677 0.849811,0.533354 1.775105,0.39913 2.43203,-0.352795 z M 78.107055,37.720673 c 0.839492,-0.401254 1.408471,-1.250377 1.408471,-2.101955 0,-0.504712 -0.05817,-0.52272 -2.179775,-0.674759 -2.210162,-0.158386 -23.860939,-0.107475 -24.349681,0.05726 -0.733531,0.24724 0.0099,2.073708 1.079797,2.652753 1.004015,0.543402 2.111607,0.589312 12.494963,0.517907 9.735904,-0.06695 10.831916,-0.109781 11.546225,-0.451202 z M 60.416859,28.766277 c -0.126901,-0.751823 0.415606,-2.700014 0.993006,-3.565976 0.670609,-1.005759 1.76831,-1.823159 2.814536,-2.095841 l 0.723849,-0.18866 0.10633,-5.189205 c 0.111356,-5.434432 0.140969,-5.588798 1.073938,-5.598082 0.780083,-0.0078 0.840011,0.390312 0.840011,5.579743 v 5.068936 l 0.979331,0.376723 c 1.993291,0.766766 3.350108,2.613868 3.620168,4.928313 l 0.14062,1.205129 5.445231,-0.06648 5.445231,-0.06649 1.031635,-0.610777 c 0.764176,-0.452429 1.139068,-0.855405 1.44602,-1.554353 0.380329,-0.866034 0.409145,-1.372927 0.350659,-6.168125 -0.05745,-4.710227 -0.102071,-5.267186 -0.45327,-5.657678 -1.074206,-1.194382 -5.965353,-3.118721 -10.22872,-4.024313 -3.534727,-0.75082 -10.90273,-0.961027 -14.547715,-0.415042 -5.350414,0.801442 -11.300438,2.880497 -13.059825,4.563359 l -0.584818,0.559381 v 5.048665 c 0,2.776766 0.09341,5.376737 0.207583,5.777712 0.26794,0.941027 0.959881,1.687624 2.025357,2.185336 0.768466,0.35897 1.374532,0.392454 6.273499,0.346598 5.102338,-0.04776 5.418982,-0.0737 5.357344,-0.438873 z m -9.991258,-6.289815 c -0.314675,-0.127202 -2.596559,-4.60886 -2.596559,-5.099682 0,-0.500474 0.790967,-1.181686 1.372074,-1.181686 0.441603,0 0.717754,0.352526 1.803805,2.302685 0.705305,1.266477 1.284089,2.552822 1.286186,2.858545 0.0064,0.930429 -0.935597,1.49604 -1.865506,1.120138 z M 80.14645,22.230101 c -0.396957,-0.323767 -0.454152,-0.517353 -0.332265,-1.124567 0.215117,-1.071653 2.291741,-4.542405 2.900821,-4.848266 0.671545,-0.33723 1.344391,0.06997 1.439921,0.871434 0.06979,0.585577 -1.599666,4.402811 -2.234659,5.109559 -0.441743,0.491661 -1.165088,0.488333 -1.773818,-0.0082 z M 54.988771,20.196693 c -0.429752,-0.33486 -1.716523,-4.109564 -1.549962,-4.546762 0.07879,-0.206811 0.319436,-0.314627 0.609616,-0.273122 0.394445,0.05642 0.599508,0.410328 1.156754,1.996403 0.372525,1.060306 0.683541,2.134397 0.691148,2.386869 0.01671,0.554567 -0.461144,0.784455 -0.907556,0.436612 z m 21.230557,-0.145865 c -0.186672,-0.304231 -0.05165,-0.832117 0.761398,-2.976706 0.575231,-1.517303 0.723513,-1.735841 1.177793,-1.735841 0.285842,0 0.571001,0.134627 0.633687,0.299171 0.06269,0.164544 -0.253526,1.248948 -0.702693,2.409786 -0.646045,1.669651 -0.911429,2.124364 -1.27022,2.176416 -0.249451,0.03619 -0.519437,-0.04158 -0.599965,-0.172826 z M 58.167395,18.859171 c -0.24,-0.629968 -0.768609,-3.118489 -0.768609,-3.618366 0,-0.522587 0.437118,-0.823529 0.923252,-0.635629 0.287188,0.111004 1.186423,3.890225 1.034721,4.34863 -0.119726,0.361779 -1.043482,0.288278 -1.189364,-0.09464 z m 14.774083,0.03584 c -0.187969,-0.22813 -0.166358,-0.672005 0.09125,-1.874278 0.185653,-0.866445 0.426264,-1.792236 0.534691,-2.057312 0.240536,-0.588048 0.979763,-0.635812 1.156561,-0.07473 0.153116,0.485927 -0.454899,3.140255 -0.875785,3.823285 -0.343354,0.55721 -0.562042,0.601356 -0.906718,0.183034 z m -11.35275,-0.706292 c -0.195585,-0.327013 -0.608774,-4.121048 -0.472918,-4.342463 0.190546,-0.310545 0.864418,-0.276245 1.139833,0.05802 0.126716,0.153792 0.258056,1.19 0.291864,2.302685 0.05868,1.931093 0.04063,2.026055 -0.396948,2.088864 -0.252131,0.03619 -0.504955,-0.01201 -0.561831,-0.107101 z m 7.872253,-0.127167 c -0.112848,-0.29621 0.189039,-3.65667 0.374537,-4.169147 0.0533,-0.147265 0.339162,-0.267754 0.635243,-0.267754 0.51024,0 0.537257,0.05867 0.517819,1.124567 -0.01127,0.618511 -0.130899,1.65472 -0.265826,2.302684 -0.195986,0.941198 -0.3361,1.191165 -0.696739,1.242994 -0.248282,0.03568 -0.502548,-0.06932 -0.565034,-0.233344 z M 88.659947,92.237243 V 71.245326 l -3.030419,-0.0025 -3.030418,-0.0025 -1.752108,-3.26407 c -0.96366,-1.795244 -2.028555,-3.746031 -2.366435,-4.33509 L 77.86624,62.57015 h 14.434695 14.434695 l 2.2e-4,4.337615 2.1e-4,4.337616 h -4.67854 -4.67855 V 92.237243 113.22916 H 93.01942 88.659871 V 92.237243 Z"
       id="path302" /></g></svg>
